<?xml version="1.0" encoding="utf-8"?>
<!-- Generator: Adobe Illustrator 23.1.0, SVG Export Plug-In . SVG Version: 6.00 Build 0)  -->
<svg version="1.1" id="Calque_1" xmlns="http://www.w3.org/2000/svg" xmlns:xlink="http://www.w3.org/1999/xlink" x="0px" y="0px"
	 viewBox="0 0 1280 1024" style="enable-background:new 0 0 1280 1024;" xml:space="preserve">
<style type="text/css">
	.st0{fill:#FFE600;}
	.st1{fill:#2A2A2A;}
</style>
<circle class="st0" cx="656.93" cy="520.68" r="308.32"/>
<circle class="st1" cx="656.93" cy="519.29" r="291.82"/>
<g>
	<path class="st0" d="M810.59,655.72c-19.42,0.14-37.57,0-55.57-1.43c-8.52-0.68-21.2-12.64-23.3-21.62
		c-13.1-56.08-47.79-72.07-98.49-62.63c-4.45,0.83-9.3-0.54-13.94-1.12c-1.02-0.13-1.92-1.29-8.92-6.28
		c8.1-19.67,16.26-39.51,24.48-59.46h-86.08c-14.5,33.85-28.82,67.26-43.03,100.42c9.42,6.46,10.64,7.96,12.01,8.12
		c6.24,0.76,12.78,2.52,18.76,1.45c68.24-12.2,114.92,8.46,132.54,80.96c2.82,11.61,19.89,27.07,31.35,27.95
		c43.28,3.3,86.97,1.33,140.51,1.33C830.7,700.62,820.62,678.11,810.59,655.72z"/>
	<path class="st0" d="M686.28,378.18c-14.15-31.59-28.4-63.42-42.92-95.82c-25.93,60.51-50.58,118.06-74.55,174h85.29
		C664.64,430.77,675.31,404.84,686.28,378.18z"/>
</g>
</svg>
