<svg xmlns="http://www.w3.org/2000/svg" width="12.913" height="12.915" viewBox="0 0 12.913 12.915"><g transform="translate(-0.449 0)"><path d="M13.329,3.8a4.719,4.719,0,0,0-.3-1.567,3.308,3.308,0,0,0-1.89-1.89A4.731,4.731,0,0,0,9.572.04C8.881.008,8.661,0,6.908,0S4.935.008,4.246.038a4.721,4.721,0,0,0-1.567.3,3.151,3.151,0,0,0-1.146.747A3.18,3.18,0,0,0,.789,2.228a4.732,4.732,0,0,0-.3,1.567c-.033.691-.04.911-.04,2.664S.456,8.432.486,9.121a4.719,4.719,0,0,0,.3,1.567,3.308,3.308,0,0,0,1.89,1.89,4.732,4.732,0,0,0,1.567.3c.689.03.908.038,2.662.038s1.973-.007,2.662-.038a4.718,4.718,0,0,0,1.567-.3,3.3,3.3,0,0,0,1.89-1.89,4.735,4.735,0,0,0,.3-1.567c.03-.689.038-.908.038-2.662s0-1.973-.033-2.662ZM12.166,9.07a3.54,3.54,0,0,1-.222,1.2A2.142,2.142,0,0,1,10.717,11.5a3.553,3.553,0,0,1-1.2.222c-.681.03-.886.038-2.609.038s-1.93-.007-2.609-.038A3.538,3.538,0,0,1,3.1,11.5a1.987,1.987,0,0,1-.742-.482,2.008,2.008,0,0,1-.482-.742,3.553,3.553,0,0,1-.222-1.2c-.03-.681-.038-.886-.038-2.609s.007-1.93.038-2.609a3.538,3.538,0,0,1,.222-1.2,1.963,1.963,0,0,1,.485-.742,2,2,0,0,1,.742-.482,3.555,3.555,0,0,1,1.2-.222c.681-.03.886-.038,2.609-.038s1.93.008,2.609.038a3.54,3.54,0,0,1,1.2.222,1.986,1.986,0,0,1,.742.482,2.008,2.008,0,0,1,.482.742,3.554,3.554,0,0,1,.222,1.2c.03.681.038.886.038,2.609S12.2,8.389,12.166,9.07Zm0,0" fill="#fff"/><path d="M128.267,124.5a3.318,3.318,0,1,0,3.318,3.318A3.319,3.319,0,0,0,128.267,124.5Zm0,5.47a2.152,2.152,0,1,1,2.152-2.152A2.153,2.153,0,0,1,128.267,129.97Zm0,0" transform="translate(-121.359 -121.359)" fill="#fff"/><path d="M364,89.376a.775.775,0,1,1-.775-.775A.775.775,0,0,1,364,89.376Zm0,0" transform="translate(-352.868 -86.366)" fill="#fff"/></g></svg>