<svg xmlns="http://www.w3.org/2000/svg" width="165.594" height="121" viewBox="0 0 165.594 121"><g transform="translate(-356.74 -56.78)"><g transform="translate(356.74 137.958)"><path d="M370.062,154.561a11.476,11.476,0,0,1,7.858,2.976l1.1-1.012a13.322,13.322,0,1,0,0,19.713l-1.1-.995a11.839,11.839,0,1,1-7.858-20.682Z" transform="translate(-356.74 -153.06)" fill="#fff"/><path d="M389.459,168.2v-2.909H388V181.27h1.467v-8.246a7,7,0,0,1,2.167-4.958,4.493,4.493,0,0,1,2.867-1.543V164.93a6.1,6.1,0,0,0-3.971,2.032A7.728,7.728,0,0,0,389.459,168.2Z" transform="translate(-361.643 -154.922)" fill="#fff"/><path d="M412.475,177.786a7.355,7.355,0,0,1-10.135.278l10.413-10.413,1.1-1.1c-.084-.1-.177-.194-.278-.3-.261-.261-.523-.5-.784-.717a8.956,8.956,0,1,0,.784,13.364,9.942,9.942,0,0,0,.961-1.121L413,177.221C412.829,177.415,412.66,177.6,412.475,177.786Zm-12.6-5.219a7.38,7.38,0,0,1,11.8-5.9l-10.329,10.328A7.063,7.063,0,0,1,399.878,172.567Z" transform="translate(-363.26 -154.718)" fill="#fff"/><path d="M437.887,167.35a10.217,10.217,0,0,0-.928-1.088,8.946,8.946,0,1,0,0,12.647,10.218,10.218,0,0,0,.928-1.088v3.255h1.467V165.1h-1.467Zm0,6.686a7.35,7.35,0,1,1,0-2.884Z" transform="translate(-366.928 -154.72)" fill="#fff"/><path d="M449.9,168.2v-2.909H448.43V181.27H449.9v-8.246a7,7,0,0,1,2.167-4.958,4.493,4.493,0,0,1,2.867-1.543V164.93a6.1,6.1,0,0,0-3.971,2.032A7.667,7.667,0,0,0,449.9,168.2Z" transform="translate(-371.122 -154.922)" fill="#fff"/><path d="M464.322,157.29h-1.467v6.8H459.6v1.467h3.255v14.511h1.467V165.553h3.255v-1.467h-3.255Z" transform="translate(-372.874 -153.723)" fill="#fff"/><path d="M481.456,165.2a7.128,7.128,0,0,1,5.219,2.15c.185.194.354.388.523.582l1.543-.573a8.915,8.915,0,0,0-.961-1.1,8.946,8.946,0,1,0,0,12.647,9.943,9.943,0,0,0,.961-1.121l-1.543-.556c-.16.194-.337.388-.523.573a7.372,7.372,0,1,1-5.219-12.6Z" transform="translate(-374.899 -154.718)" fill="#fff"/><path d="M509.395,177.786a7.355,7.355,0,0,1-10.135.278l10.413-10.413,1.1-1.1c-.084-.1-.177-.194-.278-.3-.261-.261-.523-.5-.784-.717A8.956,8.956,0,1,0,510.5,178.9a9.948,9.948,0,0,0,.961-1.121l-1.543-.556C509.749,177.415,509.572,177.6,509.395,177.786Zm-12.6-5.219a7.38,7.38,0,0,1,11.8-5.9l-10.329,10.328A7.063,7.063,0,0,1,496.8,172.567Z" transform="translate(-378.463 -154.718)" fill="#fff"/><path d="M527.81,163.66a8.632,8.632,0,0,0-6.315,2.605,9.788,9.788,0,0,0-.927,1.071v-2.243H519.1v22.074h1.467v-9.342a9.057,9.057,0,0,0,.927,1.071,8.937,8.937,0,1,0,6.315-15.236Zm5.219,14.148a7.4,7.4,0,0,1-12.453-3.693v-3.061a7.39,7.39,0,1,1,12.453,6.754Z" transform="translate(-382.207 -154.723)" fill="#fff"/><path d="M548.4,164.086v-6.8h-1.459v6.8H543.69v1.467h3.255v14.511H548.4V165.553h3.255v-1.467Z" transform="translate(-386.064 -153.723)" fill="#fff"/></g><g transform="translate(358.131 171.532)"><path d="M360.928,193.237a2.189,2.189,0,0,1,1.5.565l.211-.194a2.459,2.459,0,0,0-1.712-.658,2.538,2.538,0,1,0,0,5.076,2.459,2.459,0,0,0,1.712-.658l-.211-.185a2.259,2.259,0,1,1-1.5-3.946Z" transform="translate(-358.39 -192.891)" fill="#ffe600"/><path d="M367.648,195.834v-.556h-.278v3.052h.278v-1.577a1.336,1.336,0,0,1,.413-.944.869.869,0,0,1,.548-.3v-.3a1.145,1.145,0,0,0-.759.388A1.262,1.262,0,0,0,367.648,195.834Z" transform="translate(-359.799 -193.245)" fill="#ffe600"/><path d="M375.068,197.667a1.35,1.35,0,0,1-.995.413,1.319,1.319,0,0,1-.936-.363l1.99-1.99.211-.211a.367.367,0,0,1-.051-.059c-.051-.051-.1-.093-.152-.135a1.639,1.639,0,0,0-1.062-.363,1.662,1.662,0,0,0-1.206.5,1.629,1.629,0,0,0-.5,1.206,1.648,1.648,0,0,0,.5,1.206,1.629,1.629,0,0,0,1.206.5,1.648,1.648,0,0,0,1.206-.5c.068-.067.127-.143.186-.211l-.3-.11A.736.736,0,0,1,375.068,197.667Zm-2.4-.995a1.411,1.411,0,0,1,1.408-1.408,1.352,1.352,0,0,1,.843.278l-1.973,1.973A1.352,1.352,0,0,1,372.665,196.672Z" transform="translate(-360.583 -193.206)" fill="#ffe600"/><path d="M382.936,195.678a1.382,1.382,0,0,0-.177-.211,1.629,1.629,0,0,0-1.206-.5,1.662,1.662,0,0,0-1.206.5,1.629,1.629,0,0,0-.5,1.206,1.662,1.662,0,0,0,.5,1.206,1.629,1.629,0,0,0,1.206.5,1.648,1.648,0,0,0,1.206-.5,1.381,1.381,0,0,0,.177-.211v.624h.278V195.24h-.278Zm0,1.273a1.312,1.312,0,0,1-.388.717,1.35,1.35,0,0,1-.995.413,1.4,1.4,0,1,1,1.383-1.686Z" transform="translate(-361.756 -193.208)" fill="#ffe600"/><path d="M388.652,193.76h-.287v1.3h-.616v.278h.616V198.1h.287v-2.766h.615v-.278h-.615Z" transform="translate(-362.995 -193.018)" fill="#ffe600"/><rect width="0.278" height="3.052" transform="translate(29.628 2.04)" fill="#ffe600"/><path d="M393.638,194.01a.288.288,0,0,0-.278.278.288.288,0,0,0,.278.287.244.244,0,0,0,.194-.084.28.28,0,0,0,.084-.2.244.244,0,0,0-.084-.194A.275.275,0,0,0,393.638,194.01Z" transform="translate(-363.875 -193.057)" fill="#ffe600"/><path d="M399.182,197.838,398.01,195.3h-.32l1.492,3.128,1.5-3.128h-.32Z" transform="translate(-364.554 -193.26)" fill="#ffe600"/><path d="M407.478,197.667a1.35,1.35,0,0,1-.995.413,1.319,1.319,0,0,1-.936-.363l1.99-1.99.211-.211a.367.367,0,0,1-.051-.059c-.051-.051-.1-.093-.152-.135a1.64,1.64,0,0,0-1.062-.363,1.662,1.662,0,0,0-1.206.5,1.629,1.629,0,0,0-.5,1.206,1.648,1.648,0,0,0,.5,1.206,1.629,1.629,0,0,0,1.206.5,1.648,1.648,0,0,0,1.206-.5c.067-.067.127-.143.186-.211l-.3-.11A.736.736,0,0,1,407.478,197.667Zm-2.4-.995a1.411,1.411,0,0,1,1.408-1.408,1.351,1.351,0,0,1,.843.278l-1.973,1.973A1.352,1.352,0,0,1,405.075,196.672Z" transform="translate(-365.666 -193.206)" fill="#ffe600"/><path d="M417.6,197.964h.3l.691-1.906h1.72l.691,1.906h.3l-1.846-5.084Zm1.1-2.184.759-2.083.759,2.083Z" transform="translate(-367.677 -192.88)" fill="#ffe600"/><path d="M426.028,195.834v-.556h-.278v3.052h.278v-1.577a1.337,1.337,0,0,1,.413-.944.87.87,0,0,1,.548-.3v-.3a1.145,1.145,0,0,0-.759.388A1.262,1.262,0,0,0,426.028,195.834Z" transform="translate(-368.956 -193.245)" fill="#ffe600"/><path d="M431.652,193.76h-.287v1.3h-.615v.278h.615V198.1h.287v-2.766h.615v-.278h-.615Z" transform="translate(-369.74 -193.018)" fill="#ffe600"/><path d="M444.528,193.237a2.189,2.189,0,0,1,1.5.565l.211-.194a2.459,2.459,0,0,0-1.712-.658,2.538,2.538,0,1,0,0,5.076,2.459,2.459,0,0,0,1.712-.658l-.211-.185a2.259,2.259,0,1,1-1.5-3.946Z" transform="translate(-371.503 -192.891)" fill="#ffe600"/><path d="M452.453,194.97a1.662,1.662,0,0,0-1.206.5,1.629,1.629,0,0,0-.5,1.206,1.662,1.662,0,0,0,.5,1.206,1.629,1.629,0,0,0,1.206.5,1.7,1.7,0,1,0,0-3.406Zm1,2.7a1.4,1.4,0,1,1,.413-.995A1.35,1.35,0,0,1,453.456,197.668Z" transform="translate(-372.877 -193.208)" fill="#ffe600"/><path d="M459.863,195.08a1.213,1.213,0,0,0-.885.379v-.194H458.7v3.052h.278v-2.369a.953.953,0,0,1,.228-.312.93.93,0,0,1,.666-.27.918.918,0,0,1,.666.278.9.9,0,0,1,.278.666v2.015h.278v-2.04a1.2,1.2,0,0,0-.346-.852A1.145,1.145,0,0,0,459.863,195.08Z" transform="translate(-374.124 -193.225)" fill="#ffe600"/><path d="M467.143,195.265a1.337,1.337,0,0,1,.995.413c.034.034.068.076.1.11l.3-.11a1.448,1.448,0,0,0-.185-.211,1.629,1.629,0,0,0-1.206-.5,1.662,1.662,0,0,0-1.206.5,1.629,1.629,0,0,0-.5,1.206,1.648,1.648,0,0,0,.5,1.206,1.629,1.629,0,0,0,1.206.5,1.649,1.649,0,0,0,1.206-.5c.067-.067.126-.143.185-.211l-.3-.11c-.034.034-.067.076-.1.11a1.407,1.407,0,1,1-.995-2.4Z" transform="translate(-375.181 -193.208)" fill="#ffe600"/><path d="M475.5,197.667a1.35,1.35,0,0,1-.995.413,1.319,1.319,0,0,1-.936-.363l1.99-1.99.211-.211a.364.364,0,0,1-.051-.059c-.051-.051-.1-.093-.152-.135a1.64,1.64,0,0,0-1.062-.363,1.662,1.662,0,0,0-1.206.5,1.629,1.629,0,0,0-.5,1.206,1.648,1.648,0,0,0,.5,1.206,1.629,1.629,0,0,0,1.206.5,1.648,1.648,0,0,0,1.206-.5c.068-.067.126-.143.186-.211l-.3-.11A.739.739,0,0,1,475.5,197.667Zm-2.4-.995a1.336,1.336,0,0,1,.413-.995,1.41,1.41,0,0,1,1.838-.135l-1.973,1.973A1.352,1.352,0,0,1,473.1,196.672Z" transform="translate(-376.336 -193.206)" fill="#ffe600"/><path d="M482.031,194.97a1.662,1.662,0,0,0-1.206.5,1.925,1.925,0,0,0-.177.2v-.43h-.278v4.216h.278v-1.779a1.922,1.922,0,0,0,.177.2,1.629,1.629,0,0,0,1.206.5,1.7,1.7,0,1,0,0-3.406Zm.995,2.707a1.4,1.4,0,0,1-1.99,0,1.405,1.405,0,0,1-.388-.708v-.582a1.411,1.411,0,1,1,2.378,1.29Z" transform="translate(-377.523 -193.208)" fill="#ffe600"/><path d="M488.974,193.76H488.7v1.3h-.616v.278h.616V198.1h.278v-2.766h.624v-.278h-.624Z" transform="translate(-378.732 -193.018)" fill="#ffe600"/><path d="M501.858,193.237a2.19,2.19,0,0,1,1.5.565l.211-.194a2.459,2.459,0,0,0-1.712-.658,2.538,2.538,0,1,0,0,5.076,2.459,2.459,0,0,0,1.712-.658l-.211-.185a2.259,2.259,0,1,1-1.5-3.946Z" transform="translate(-380.496 -192.891)" fill="#ffe600"/><path d="M509.783,194.97a1.662,1.662,0,0,0-1.206.5,1.629,1.629,0,0,0-.5,1.206,1.662,1.662,0,0,0,.5,1.206,1.629,1.629,0,0,0,1.206.5,1.7,1.7,0,1,0,0-3.406Zm1,2.7a1.4,1.4,0,1,1,.413-.995A1.35,1.35,0,0,1,510.787,197.668Z" transform="translate(-381.87 -193.208)" fill="#ffe600"/><path d="M518.457,195.08a.865.865,0,0,0-.641.261,1.009,1.009,0,0,0-.127.152.549.549,0,0,0-.126-.152.906.906,0,0,0-1.265-.008v-.067h-.278v3.052h.278V195.94a.6.6,0,0,1,.186-.388.621.621,0,0,1,.885,0,.645.645,0,0,1,.185.413h0v2.352h.278v-2.31a.592.592,0,0,1,.185-.455.627.627,0,0,1,.438-.185.611.611,0,0,1,.447.185.644.644,0,0,1,.186.413h0v2.352h.278v-2.352a.907.907,0,0,0-.911-.885Z" transform="translate(-383.115 -193.225)" fill="#ffe600"/><path d="M525.771,194.97a1.662,1.662,0,0,0-1.206.5,1.9,1.9,0,0,0-.177.2v-.43h-.278v4.216h.278v-1.779a1.9,1.9,0,0,0,.177.2,1.629,1.629,0,0,0,1.206.5,1.7,1.7,0,1,0,0-3.406Zm.995,2.707a1.4,1.4,0,0,1-1.99,0,1.4,1.4,0,0,1-.388-.708v-.582a1.411,1.411,0,1,1,2.378,1.29Z" transform="translate(-384.384 -193.208)" fill="#ffe600"/><path d="M535.036,195.678a1.368,1.368,0,0,0-.177-.211,1.629,1.629,0,0,0-1.206-.5,1.662,1.662,0,0,0-1.206.5,1.629,1.629,0,0,0-.5,1.206,1.662,1.662,0,0,0,.5,1.206,1.629,1.629,0,0,0,1.206.5,1.648,1.648,0,0,0,1.206-.5,1.367,1.367,0,0,0,.177-.211v.624h.278V195.24h-.278Zm0,1.273a1.312,1.312,0,0,1-.388.717,1.35,1.35,0,0,1-.995.413,1.4,1.4,0,1,1,1.383-1.686Z" transform="translate(-385.614 -193.208)" fill="#ffe600"/><path d="M541.234,195.08a1.213,1.213,0,0,0-.885.379v-.194h-.278v3.052h.278v-2.369a.954.954,0,0,1,.228-.312.93.93,0,0,1,.666-.27.918.918,0,0,1,.666.278.9.9,0,0,1,.278.666v2.015h.278v-2.04a1.2,1.2,0,0,0-.346-.852A1.145,1.145,0,0,0,541.234,195.08Z" transform="translate(-386.887 -193.225)" fill="#ffe600"/><path d="M549.406,195.3h-.312l-1.012,2.184L547.07,195.3h-.32l1.2,2.487-.826,1.72h.27l.691-1.433h0Z" transform="translate(-387.935 -193.26)" fill="#ffe600"/></g><g transform="translate(440.372 91.037)"><path d="M483.417,134.792c-1.754.017-3.389,0-5.008-.126a3.066,3.066,0,0,1-2.1-1.948c-1.18-5.059-4.308-6.5-8.887-5.649a4.246,4.246,0,0,1-1.256-.1c-.093-.008-.177-.118-.8-.565.734-1.771,1.467-3.566,2.209-5.362h-7.765c-1.307,3.052-2.6,6.062-3.878,9.055a7.454,7.454,0,0,0,1.079.734,6.139,6.139,0,0,0,1.695.135c6.155-1.1,10.362.759,11.956,7.3a4.085,4.085,0,0,0,2.825,2.521c3.9.3,7.841.118,12.672.118C485.229,138.839,484.319,136.807,483.417,134.792Z" transform="translate(-455.93 -101.116)" fill="#ffe600"/><path d="M473.26,106.052c-1.273-2.85-2.563-5.717-3.87-8.642-2.335,5.455-4.561,10.649-6.72,15.691h7.69C471.312,110.8,472.273,108.455,473.26,106.052Z" transform="translate(-456.987 -97.41)" fill="#ffe600"/></g><g transform="translate(411.603 64.731)"><path d="M451.472,66.21c-10.05,22.377-19.721,44.029-29.662,66.145,2.015,0,3.862.034,5.624.051l26.837-59.7C453.386,70.746,452.492,68.461,451.472,66.21Z" transform="translate(-421.81 -66.21)" fill="#fff"/><path d="M456.517,76.17l-25.977,57.8c1.661-.008,3.255-.042,4.848-.169a4.493,4.493,0,0,0,2.892-2.454q10.295-22.929,20.311-45.977a5.69,5.69,0,0,0,.169-3.963C458.06,79.669,457.318,77.949,456.517,76.17Z" transform="translate(-423.179 -67.772)" fill="#fff"/></g><path d="M448.97,63.281l3.3-6.5,2.673,6.121L451.6,70.06Z" transform="translate(-14.467)" fill="#fff"/><path d="M416.65,135.292l3.3-6.492,2.673,6.121-3.339,7.158Z" transform="translate(-9.397 -11.297)" fill="#fff"/></g></svg>