<svg xmlns="http://www.w3.org/2000/svg" width="13.239" height="13.237" viewBox="0 0 13.239 13.237"><g transform="translate(-205.266 -1220.42)"><g transform="translate(205.266 1220.42)"><path d="M6.622,0h0A6.616,6.616,0,0,0,1.261,10.5L.436,12.959l2.544-.814A6.618,6.618,0,1,0,6.622,0Z" transform="translate(-0.001 0)" fill="#fff"/><path d="M114.963,123.407a1.868,1.868,0,0,1-1.3.934c-.346.073-.8.132-2.318-.5a8.3,8.3,0,0,1-3.3-2.911,3.781,3.781,0,0,1-.786-2,2.113,2.113,0,0,1,.677-1.611.962.962,0,0,1,.677-.237c.082,0,.156,0,.221.008.194.008.292.02.42.327.159.385.549,1.334.595,1.432a.394.394,0,0,1,.028.358,1.143,1.143,0,0,1-.214.3c-.1.113-.19.2-.288.319-.089.105-.19.218-.078.412a5.878,5.878,0,0,0,1.074,1.334,4.867,4.867,0,0,0,1.552.957.419.419,0,0,0,.466-.073,8,8,0,0,0,.517-.685.37.37,0,0,1,.475-.144c.179.062,1.124.53,1.319.626s.323.144.37.226a1.649,1.649,0,0,1-.113.919Z" transform="translate(-104.49 -114.06)" fill="#464646"/></g></g></svg>